<?xml version="1.0" encoding="UTF-8"?>
<svg version="1.1" xmlns="http://www.w3.org/2000/svg" width="121" height="63">
<path d="M0 0 C39.93 0 79.86 0 121 0 C121 20.79 121 41.58 121 63 C81.07 63 41.14 63 0 63 C0 42.21 0 21.42 0 0 Z " fill="#FDFDFD" transform="translate(0,0)"/>
<path d="M0 0 C20.79 0 41.58 0 63 0 C63 0.99 63 1.98 63 3 C64.32 3 65.64 3 67 3 C67 2.01 67 1.02 67 0 C81.19 0 95.38 0 110 0 C110 1.32 110 2.64 110 4 C73.7 4 37.4 4 0 4 C0 2.68 0 1.36 0 0 Z " fill="#D95A1A" transform="translate(6,53)"/>
<path d="M0 0 C2.9321886 2.56566502 3.84783338 4.10602112 4.5 7.9375 C3.87232529 11.78200757 2.43467939 13.99245487 0 17 C-0.66 17 -1.32 17 -2 17 C-2 17.66 -2 18.32 -2 19 C-0.35 18.67 1.3 18.34 3 18 C2.67 19.32 2.34 20.64 2 22 C-2.29 22 -6.58 22 -11 22 C-11 21.01 -11 20.02 -11 19 C-10.34 19 -9.68 19 -9 19 C-9 18.34 -9 17.68 -9 17 C-9.639375 16.71125 -10.27875 16.4225 -10.9375 16.125 C-13 15 -13 15 -14 13 C-14.5811138 5.91041162 -14.5811138 5.91041162 -12.125 2.0625 C-8.3338307 -1.61716432 -4.93269062 -1.41351806 0 0 Z " fill="#DB632A" transform="translate(109,16)"/>
<path d="M0 0 C3.76706021 1.18592636 5.27969919 1.71001871 7.375 5.0625 C8.197205 8.88754066 8.43462777 12.40378939 6.26953125 15.79296875 C3.48786573 18.4553135 1.55733387 19.05935631 -2.25 19.125 C-6.01706021 17.93907364 -7.52969919 17.41498129 -9.625 14.0625 C-10.447205 10.23745934 -10.68462777 6.72121061 -8.51953125 3.33203125 C-5.73786573 0.6696865 -3.80733387 0.06564369 0 0 Z " fill="#0F080B" transform="translate(58.625,14.9375)"/>
<path d="M0 0 C5.28 0 10.56 0 16 0 C16 2.31 16 4.62 16 7 C15.01 7 14.02 7 13 7 C13 5.68 13 4.36 13 3 C10.69 3 8.38 3 6 3 C6 4.65 6 6.3 6 8 C6.99 8 7.98 8 9 8 C9 7.34 9 6.68 9 6 C9.99 6.33 10.98 6.66 12 7 C12 8.65 12 10.3 12 12 C11.01 12.33 10.02 12.66 9 13 C9 12.34 9 11.68 9 11 C8.01 11 7.02 11 6 11 C6 12.65 6 14.3 6 16 C8.64 16 11.28 16 14 16 C14 14.68 14 13.36 14 12 C14.99 12 15.98 12 17 12 C17 14.31 17 16.62 17 19 C11.39 19 5.78 19 0 19 C0 18.01 0 17.02 0 16 C0.99 16 1.98 16 3 16 C3 11.71 3 7.42 3 3 C2.01 3 1.02 3 0 3 C0 2.01 0 1.02 0 0 Z " fill="#0D0B11" transform="translate(27,15)"/>
<path d="M0 0 C20.79 0 41.58 0 63 0 C63 0.99 63 1.98 63 3 C42.21 3 21.42 3 0 3 C0 2.01 0 1.02 0 0 Z " fill="#000000" transform="translate(6,53)"/>
<path d="M0 0 C1.98 0 3.96 0 6 0 C5.67 2.64 5.34 5.28 5 8 C7.31 8 9.62 8 12 8 C11.67 5.36 11.34 2.72 11 0 C12.65 0 14.3 0 16 0 C15.67 5.28 15.34 10.56 15 16 C15.66 16 16.32 16 17 16 C17 16.99 17 17.98 17 19 C15.02 19 13.04 19 11 19 C11.33 16.36 11.66 13.72 12 11 C9.69 11 7.38 11 5 11 C5.33 13.64 5.66 16.28 6 19 C4.02 19 2.04 19 0 19 C0 18.01 0 17.02 0 16 C0.66 16 1.32 16 2 16 C2 11.71 2 7.42 2 3 C1.34 3 0.68 3 0 3 C0 2.01 0 1.02 0 0 Z " fill="#DA5B25" transform="translate(74,15)"/>
<path d="M0 0 C0.90105469 0.01804687 1.80210938 0.03609375 2.73046875 0.0546875 C3.41753906 0.07789063 4.10460938 0.10109375 4.8125 0.125 C4.8125 2.435 4.8125 4.745 4.8125 7.125 C3.8225 7.125 2.8325 7.125 1.8125 7.125 C1.8125 6.135 1.8125 5.145 1.8125 4.125 C-0.8275 4.125 -3.4675 4.125 -6.1875 4.125 C-6.1875 5.115 -6.1875 6.105 -6.1875 7.125 C-5.48882812 7.23457031 -4.79015625 7.34414063 -4.0703125 7.45703125 C-3.16023437 7.61558594 -2.25015625 7.77414063 -1.3125 7.9375 C-0.40757813 8.08832031 0.49734375 8.23914062 1.4296875 8.39453125 C3.8125 9.125 3.8125 9.125 5.8125 12.125 C5.6875 14.6875 5.6875 14.6875 4.8125 17.125 C1.71441141 19.17871031 -0.7762797 19.3463479 -4.4375 19.25 C-5.32953125 19.23195313 -6.2215625 19.21390625 -7.140625 19.1953125 C-7.81609375 19.17210938 -8.4915625 19.14890625 -9.1875 19.125 C-9.5175 17.475 -9.8475 15.825 -10.1875 14.125 C-8.8675 14.125 -7.5475 14.125 -6.1875 14.125 C-5.8575 14.455 -5.5275 14.785 -5.1875 15.125 C-2.51691149 15.26615161 0.13682238 15.16747107 2.8125 15.125 C0.77715251 12.49102089 -0.4395567 12.05424724 -3.75 11.125 C-7.1875 10.125 -7.1875 10.125 -9.1875 7.125 C-9 4.5625 -9 4.5625 -8.1875 2.125 C-4.87379 -0.08414 -3.8428979 -0.09981553 0 0 Z " fill="#1E1816" transform="translate(17.1875,14.875)"/>
<path d="M0 0 C2 3 2 3 1.8125 6.5625 C1 10 1 10 -2 12 C-4.79523674 12.34940459 -6.3648354 12.37233787 -8.8125 10.9375 C-10.67036623 7.90624457 -10.37133265 5.46577141 -10 2 C-7.71139092 -2.30797003 -4.19123206 -1.06685907 0 0 Z " fill="#FBF6F1" transform="translate(108,19)"/>
<path d="M0 0 C1.8125 1.0625 1.8125 1.0625 3 3 C3.6384 8.9584 3.6384 8.9584 1.8125 11.9375 C-0.66049093 13.38718434 -2.17884512 13.42317323 -5 13 C-6.8125 11.9375 -6.8125 11.9375 -8 10 C-8.6384 4.0416 -8.6384 4.0416 -6.8125 1.0625 C-4.33950907 -0.38718434 -2.82115488 -0.42317323 0 0 Z " fill="#F6FAF9" transform="translate(60,18)"/>
<path d="M0 0 C5.28 0 10.56 0 16 0 C16 2.31 16 4.62 16 7 C15.01 7 14.02 7 13 7 C13 5.68 13 4.36 13 3 C10.36 3 7.72 3 5 3 C4.67 7.29 4.34 11.58 4 16 C3.67 16 3.34 16 3 16 C3 11.71 3 7.42 3 3 C2.01 3 1.02 3 0 3 C0 2.01 0 1.02 0 0 Z " fill="#160807" transform="translate(27,15)"/>
<path d="M0 0 C3.375 0.9375 3.375 0.9375 5.375 2 C7.07665035 5.29694755 6.01978904 8.36185171 5.375 11.9375 C5.045 11.9375 4.715 11.9375 4.375 11.9375 C4.065625 10.803125 3.75625 9.66875 3.4375 8.5 C2.74575469 5.14974901 2.74575469 5.14974901 1.375 3.9375 C-1.08309998 3.6874227 -1.08309998 3.6874227 -3.625 3.9375 C-6.1904594 6.5029594 -6.16546087 8.41436668 -6.625 11.9375 C-6.955 11.9375 -7.285 11.9375 -7.625 11.9375 C-8.22232819 9.17485711 -8.625 6.77717231 -8.625 3.9375 C-5.70270994 0.7495472 -4.38087179 -0.07553227 0 0 Z " fill="#28180C" transform="translate(58.625,15.0625)"/>
<path d="M0 0 C2.54032055 0.01796549 5.04320014 0.118343 7.57421875 0.33203125 C7.57421875 2.64203125 7.57421875 4.95203125 7.57421875 7.33203125 C6.58421875 7.33203125 5.59421875 7.33203125 4.57421875 7.33203125 C4.57421875 6.34203125 4.57421875 5.35203125 4.57421875 4.33203125 C1.05224665 4.25198643 -2.04559594 4.29197423 -5.42578125 5.33203125 C-4.29102155 2.08986068 -3.53506819 0.48386602 0 0 Z " fill="#0F0F1B" transform="translate(14.42578125,14.66796875)"/>
<path d="M0 0 C0.33 0 0.66 0 1 0 C1 1.65 1 3.3 1 5 C1.99 5 2.98 5 4 5 C4 4.34 4 3.68 4 3 C4.99 3.33 5.98 3.66 7 4 C7 5.65 7 7.3 7 9 C6.01 9.33 5.02 9.66 4 10 C4 9.34 4 8.68 4 8 C3.01 8 2.02 8 1 8 C1 9.65 1 11.3 1 13 C0.67 13 0.34 13 0 13 C-1.28571429 4.57142857 -1.28571429 4.57142857 0 0 Z " fill="#041536" transform="translate(32,18)"/>
<path d="M0 0 C0.33 1.65 0.66 3.3 1 5 C-3.455 4.01 -3.455 4.01 -8 3 C-8 2.01 -8 1.02 -8 0 C-5.13822943 -1.43088528 -3.06624227 -0.59991697 0 0 Z " fill="#E1E9ED" transform="translate(19,19)"/>
<path d="M0 0 C0.99 0 1.98 0 3 0 C3 0.66 3 1.32 3 2 C4.32 1.67 5.64 1.34 7 1 C7.33 2.32 7.66 3.64 8 5 C5.36 5 2.72 5 0 5 C0 3.35 0 1.7 0 0 Z " fill="#F5F6EB" transform="translate(33,26)"/>
<path d="M0 0 C2.31 0 4.62 0 7 0 C7 0.99 7 1.98 7 3 C5.68 3 4.36 3 3 3 C3 3.66 3 4.32 3 5 C2.01 5 1.02 5 0 5 C0 3.35 0 1.7 0 0 Z " fill="#F7FAF0" transform="translate(33,18)"/>
<path d="M0 0 C1.65 0 3.3 0 5 0 C5 0.99 5 1.98 5 3 C4.34 3 3.68 3 3 3 C2.67 4.65 2.34 6.3 2 8 C1.67 8 1.34 8 1 8 C0.67 5.36 0.34 2.72 0 0 Z " fill="#DB611A" transform="translate(85,15)"/>
<path d="M0 0 C0.66 0.33 1.32 0.66 2 1 C1.690625 1.53625 1.38125 2.0725 1.0625 2.625 C-0.17827439 5.3984957 -0.5909675 8.00042837 -1 11 C-1.33 11 -1.66 11 -2 11 C-2.59732819 8.23735711 -3 5.83967231 -3 3 C-1.5 1.3125 -1.5 1.3125 0 0 Z " fill="#161930" transform="translate(53,16)"/>
<path d="M0 0 C1.98 0 3.96 0 6 0 C6 0.99 6 1.98 6 3 C3 4 3 4 0 3 C0 2.01 0 1.02 0 0 Z " fill="#DC6928" transform="translate(74,15)"/>
</svg>
